<?xml version="1.0" encoding="UTF-8" standalone="no"?>
<!DOCTYPE svg PUBLIC "-//W3C//DTD SVG 1.1//EN"
 "http://www.w3.org/Graphics/SVG/1.1/DTD/svg11.dtd">
<!-- Generated by graphviz version 2.44.1 (20200629.0846)
 -->
<!-- Title: g Pages: 1 -->
<svg width="434pt" height="713pt"
 viewBox="0.00 0.00 434.00 713.20" xmlns="http://www.w3.org/2000/svg" xmlns:xlink="http://www.w3.org/1999/xlink">
<g id="graph0" class="graph" transform="scale(1 1) rotate(0) translate(4 709.2)">
<title>g</title>
<polygon fill="white" stroke="transparent" points="-4,4 -4,-709.2 430,-709.2 430,4 -4,4"/>
<g id="clust1" class="cluster">
<title>cluster_1143470366</title>
<polygon fill="#ececec" stroke="black" points="8,-222.4 8,-697.2 418,-697.2 418,-222.4 8,-222.4"/>
<text text-anchor="middle" x="43.21" y="-680.6" font-family="Times New Roman,serif" font-size="14.00">MyGraph</text>
</g>
<g id="clust2" class="cluster">
<title>cluster_1736073788</title>
<polygon fill="#ececec" stroke="black" points="67,-8 67,-170.8 213,-170.8 213,-8 67,-8"/>
<text text-anchor="middle" x="94.04" y="-154.2" font-family="Times New Roman,serif" font-size="14.00">Vertex</text>
</g>
<g id="clust3" class="cluster">
<title>cluster_2154973</title>
<polygon fill="#ececec" stroke="black" points="221,-20 221,-158.8 365,-158.8 365,-20 221,-20"/>
<text text-anchor="middle" x="243.38" y="-142.2" font-family="Times New Roman,serif" font-size="14.00">Edge</text>
</g>
<!-- MyGraph1143470366 -->
<g id="node1" class="node">
<title>MyGraph1143470366</title>
<polygon fill="#ffffff" stroke="transparent" points="409.5,-664.4 16.5,-664.4 16.5,-230.4 409.5,-230.4 409.5,-664.4"/>
<text text-anchor="start" x="22" y="-646.8" font-family="Times New Roman,serif" font-size="14.00">(C)MyGraph</text>
<text text-anchor="start" x="22" y="-622.8" font-family="Times New Roman,serif" font-size="14.00"># &#160;&#160;graphIndex: int [1]</text>
<text text-anchor="start" x="22" y="-598.8" font-family="Times New Roman,serif" font-size="14.00">&#45; &#160;&#160;map: HashMap&lt;Integer, List&lt;Edge&gt;&gt; [0..*]</text>
<text text-anchor="start" x="22" y="-574.8" font-family="Times New Roman,serif" font-size="14.00"># &#160;&#160;numV: int [1]</text>
<text text-anchor="start" x="22" y="-550.8" font-family="Times New Roman,serif" font-size="14.00">&#45; &#160;&#160;vertexList: List&lt;Vertex&gt; [0..*]</text>
<text text-anchor="start" x="21.97" y="-526.8" font-family="Times New Roman,serif" font-size="14.00">+ addEdge(VertexID1: int, VertexID2: int, weight: double): boolean</text>
<text text-anchor="start" x="22" y="-502.8" font-family="Times New Roman,serif" font-size="14.00">+ addVertex(new_vertex: Vertex)</text>
<text text-anchor="start" x="22" y="-478.8" font-family="Times New Roman,serif" font-size="14.00">+ edgeIterator(source: int): Iterator&lt;Edge&gt;</text>
<text text-anchor="start" x="22" y="-454.8" font-family="Times New Roman,serif" font-size="14.00">+ exportMatrix(): Edge[][]</text>
<text text-anchor="start" x="22" y="-430.8" font-family="Times New Roman,serif" font-size="14.00">+ filterVertices(key: String, filter: String): MyGraph</text>
<text text-anchor="start" x="22" y="-406.8" font-family="Times New Roman,serif" font-size="14.00">+ getEdge(source: int, dest: int): Edge</text>
<text text-anchor="start" x="22" y="-382.8" font-family="Times New Roman,serif" font-size="14.00">+ insert(edge: Edge)</text>
<text text-anchor="start" x="22" y="-358.8" font-family="Times New Roman,serif" font-size="14.00">+ isEdge(source: int, dest: int): boolean</text>
<text text-anchor="start" x="22" y="-334.8" font-family="Times New Roman,serif" font-size="14.00">+ newVertex(label: String, weight: double): Vertex</text>
<text text-anchor="start" x="22" y="-310.8" font-family="Times New Roman,serif" font-size="14.00">+ printGraph()</text>
<text text-anchor="start" x="22" y="-286.8" font-family="Times New Roman,serif" font-size="14.00">+ removeEdge(VertexID1: int, VertexID2: int)</text>
<text text-anchor="start" x="22" y="-262.8" font-family="Times New Roman,serif" font-size="14.00">+ removeVertex(VertexID: int)</text>
<text text-anchor="start" x="22" y="-238.8" font-family="Times New Roman,serif" font-size="14.00">+ removeVertex(label: String)</text>
<polygon fill="black" stroke="black" points="17,-639.4 17,-639.4 410,-639.4 410,-639.4 17,-639.4"/>
<polygon fill="black" stroke="black" points="17,-543.4 17,-543.4 410,-543.4 410,-543.4 17,-543.4"/>
<polygon fill="none" stroke="black" points="16.5,-230.4 16.5,-664.4 409.5,-664.4 409.5,-230.4 16.5,-230.4"/>
</g>
<!-- Vertex1736073788 -->
<g id="node2" class="node">
<title>Vertex1736073788</title>
<polygon fill="#ffffff" stroke="transparent" points="204.5,-138 75.5,-138 75.5,-16 204.5,-16 204.5,-138"/>
<text text-anchor="start" x="81" y="-120.4" font-family="Times New Roman,serif" font-size="14.00">(C)Vertex</text>
<text text-anchor="start" x="80.82" y="-96.4" font-family="Times New Roman,serif" font-size="14.00">&#45; &#160;&#160;color: String [0..1]</text>
<text text-anchor="start" x="81" y="-72.4" font-family="Times New Roman,serif" font-size="14.00">&#45; &#160;&#160;index: int [1]</text>
<text text-anchor="start" x="81" y="-48.4" font-family="Times New Roman,serif" font-size="14.00">&#45; &#160;&#160;label: String [0..1]</text>
<text text-anchor="start" x="81" y="-24.4" font-family="Times New Roman,serif" font-size="14.00">&#45; &#160;&#160;weight: double [1]</text>
<polygon fill="black" stroke="black" points="76,-113 76,-113 205,-113 205,-113 76,-113"/>
<polygon fill="none" stroke="black" points="75.5,-16 75.5,-138 204.5,-138 204.5,-16 75.5,-16"/>
</g>
<!-- MyGraph1143470366&#45;&gt;Vertex1736073788 -->
<g id="edge2" class="edge">
<title>MyGraph1143470366&#45;&gt;Vertex1736073788</title>
<path fill="none" stroke="black" d="M170.17,-230.24C164.32,-200.73 158.7,-172.36 153.92,-148.26"/>
<polygon fill="black" stroke="black" points="157.31,-147.34 151.93,-138.21 150.44,-148.7 157.31,-147.34"/>
<text text-anchor="middle" x="193.38" y="-199.8" font-family="Times New Roman,serif" font-size="14.00">vertexList</text>
<text text-anchor="middle" x="193.38" y="-183" font-family="Times New Roman,serif" font-size="14.00">[0..*]</text>
</g>
<!-- Edge2154973 -->
<g id="node3" class="node">
<title>Edge2154973</title>
<polygon fill="#ffffff" stroke="transparent" points="357,-126 229,-126 229,-28 357,-28 357,-126"/>
<text text-anchor="start" x="234" y="-108.4" font-family="Times New Roman,serif" font-size="14.00">(C)Edge</text>
<text text-anchor="start" x="234" y="-84.4" font-family="Times New Roman,serif" font-size="14.00">&#45; &#160;&#160;dest: int [1]</text>
<text text-anchor="start" x="234" y="-60.4" font-family="Times New Roman,serif" font-size="14.00">&#45; &#160;&#160;source: int [1]</text>
<text text-anchor="start" x="233.71" y="-36.4" font-family="Times New Roman,serif" font-size="14.00">&#45; &#160;&#160;weight: double [1]</text>
<polygon fill="black" stroke="black" points="229,-101 229,-101 357,-101 357,-101 229,-101"/>
<polygon fill="none" stroke="black" points="229,-28 229,-126 357,-126 357,-28 229,-28"/>
</g>
<!-- MyGraph1143470366&#45;&gt;Edge2154973 -->
<g id="edge1" class="edge">
<title>MyGraph1143470366&#45;&gt;Edge2154973</title>
<path fill="none" stroke="black" d="M259.94,-230.24C267.46,-195.61 274.64,-162.54 280.38,-136.12"/>
<polygon fill="black" stroke="black" points="283.8,-136.84 282.51,-126.33 276.96,-135.36 283.8,-136.84"/>
<text text-anchor="middle" x="284.16" y="-199.8" font-family="Times New Roman,serif" font-size="14.00">map</text>
<text text-anchor="middle" x="284.16" y="-183" font-family="Times New Roman,serif" font-size="14.00">[0..*]</text>
</g>
</g>
</svg>
